<svg xmlns="http://www.w3.org/2000/svg" viewBox="0 0 220 58" role="img" aria-label="TriTail合同会社">

  <!-- T letterform — elegant display serif -->
  <path d="
    M 2,0
    C 0,0 0,1 0,3
    L 0,10 C 0,12 1,13 3,12
    L 19,12
    L 19,54 C 19,56 21,57 23,57
    L 33,57 C 35,57 37,56 37,54
    L 37,12
    L 53,12 C 55,13 57,12 57,10
    L 57,3  C 57,1 56,0 54,0
    C 52,-1 50,0 48,1
    L 36,1
    L 20,1
    C 18,0 16,-1 14,0 Z
  " fill="#D6A33A"/>

  <!-- Wave 1 — Gold (top, widest sweep) -->
  <path d="
    M 35,17
    C 44,13 55,8  67,3
    C 69,2  71,4  70,7
    C 68,9  66,10 64,11
    C 54,15 44,19 36,22
    C 33,23 32,20 35,17 Z
  " fill="#D6A33A"/>

  <!-- Wave 2 — Orange (middle) -->
  <path d="
    M 35,27
    C 45,22 57,16 69,10
    C 71,9  73,11 72,14
    C 70,16 68,17 66,18
    C 56,23 45,28 36,32
    C 33,33 32,30 35,27 Z
  " fill="#D96E28"/>

  <!-- Wave 3 — Dark Brown (bottom) -->
  <path d="
    M 35,37
    C 46,31 58,24 71,18
    C 73,17 75,19 74,22
    C 72,24 70,26 68,27
    C 57,32 46,38 36,42
    C 33,43 32,40 35,37 Z
  " fill="#4A2618"/>

  <!-- TriTail wordmark -->
  <text
    x="78" y="35"
    font-family="Georgia,'Times New Roman','Hiragino Mincho ProN',serif"
    font-size="24"
    font-weight="700"
    fill="#D6A33A"
    letter-spacing="1"
  >TriTail</text>

  <!-- 合同会社 -->
  <text
    x="80" y="50"
    font-family="'Noto Sans JP','Hiragino Kaku Gothic ProN',Meiryo,sans-serif"
    font-size="8.5"
    fill="rgba(255,255,255,0.52)"
    letter-spacing="2.5"
  >合同会社</text>

</svg>
